<svg width="127" height="109" viewBox="0 0 127 109" fill="none" xmlns="http://www.w3.org/2000/svg">
   <path d="M16.1201 67.3535C27.4382 73.0831 35.2727 84.6557 35.6143 98.084L35.625 99H49.041C49.041 96.4715 49.1631 93.9714 49.4004 91.5049L50 91.9316L48 109H0.0410156L0 97.8115L16.1201 67.3535ZM107.384 73.3086L127 84.6484V95.9893L81.5 109L74.623 82.4209L63.165 54.4219C70.0878 44.6079 79.2336 36.4619 89.875 30.7119L107.384 73.3086ZM82.6279 13.0811C72.3393 19.3307 63.1847 27.4846 55.9512 36.7939L52.5801 28.5537L35.1309 62.6328C32.1412 58.5601 28.5075 54.7782 24.458 51.6006L51.7705 0H77.252L82.6279 13.0811Z" fill="#064E3B"/>
   <path d="M127 31.3605C83.9445 31.3605 49.0408 66.1211 49.0408 109H35.6253L35.6139 108.084C35.1263 88.9125 19.3681 73.5199 0 73.5199V52.1594C16.5592 52.1594 33 66 40.0805 80.8508C47 43.5 86.4001 10 127 10V31.3605Z" fill="#A7E203"/>
   </svg>
   