<svg width="491" height="109" viewBox="0 0 491 109" fill="none" xmlns="http://www.w3.org/2000/svg">
   <path d="M209.527 82.4607H189.875V75.0205L180.135 82.6317C178.986 83.0878 177.549 83.3158 175.825 83.3158C170.309 83.3158 166.315 81.9761 163.844 79.2965C161.431 76.6169 160.224 73.3957 160.224 69.6328C160.224 67.4094 160.914 65.2429 162.293 63.1334C163.672 60.9669 165.654 58.9715 168.24 57.1471H189.875V55.6933C189.875 52.5576 189.013 50.2486 187.289 48.7663C185.565 47.2839 183.266 46.5428 180.393 46.5428C176.371 46.5428 171.113 48.1106 164.62 51.2463L162.034 46.3717L174.015 36.7936C176.946 35.9384 180.365 35.5108 184.272 35.5108C190.708 35.5108 195.678 36.9647 199.183 39.8723C202.746 42.7799 204.527 46.9989 204.527 52.5291V73.9088L212.285 76.9019L209.527 82.4607ZM180.221 71.8563C183.152 71.8563 186.369 70.6591 189.875 68.2645V62.7913H175.997C175.538 63.4755 175.193 64.1311 174.963 64.7583C174.791 65.3284 174.705 65.984 174.705 66.7252C174.705 68.1505 175.193 69.3478 176.17 70.317C177.204 71.2862 178.555 71.7708 180.221 71.7708V71.8563Z" fill="#064E3B"/>
   <path d="M246.162 82.6317C244.208 83.0878 241.881 83.3158 239.18 83.3158C233.664 83.3158 229.613 82.0901 227.027 79.6385C224.499 77.13 223.235 73.2816 223.235 68.0935V44.5758H213.926V40.0433L232.457 20.0319H237.888V38.9316H253.402V44.5758H237.888V67.4949C237.888 71.4287 240.129 73.3957 244.611 73.3957C245.76 73.3957 246.88 73.2246 247.972 72.8826C249.121 72.4835 250.558 71.8278 252.282 70.9156L254.868 75.7902L246.162 82.6317Z" fill="#064E3B"/>
   <path d="M286.859 82.4607H259.622V77.6716L267.294 71.2577V51.4173L259.622 46.3717V41.5827L276.516 34.7412H281.946V74.3364L289.704 76.9019L286.859 82.4607ZM274.534 9C277.005 9 279.016 9.79818 280.567 11.3945C282.176 12.9339 282.981 14.8723 282.981 17.2098C282.981 18.8632 282.406 20.4025 281.257 21.8278C280.108 23.2531 278.671 24.3934 276.947 25.2486C275.223 26.1038 273.557 26.5314 271.948 26.5314C269.535 26.5314 267.523 25.7617 265.914 24.2223C264.363 22.626 263.587 20.6591 263.587 18.3215C263.587 16.6682 264.162 15.1288 265.311 13.7035C266.46 12.2782 267.868 11.138 269.535 10.2828C271.258 9.42759 272.925 9 274.534 9Z" fill="#064E3B"/>
   <path d="M344.885 41.1551L322.819 82.4607H311.959L299.116 51.5029L290.756 46.7138V41.9247L309.804 34.7412L313.08 47.6545L322.475 70.4025L332.904 50.2201L320.578 41.9247L323.337 36.366H344.885V41.1551Z" fill="#064E3B"/>
   <path d="M374.231 82.4607H346.994V77.6716L354.665 71.2577V51.4173L346.994 46.3717V41.5827L363.888 34.7412H369.318V74.3364L377.075 76.9019L374.231 82.4607ZM361.905 9C364.376 9 366.387 9.79818 367.939 11.3945C369.548 12.9339 370.352 14.8723 370.352 17.2098C370.352 18.8632 369.778 20.4025 368.628 21.8278C367.479 23.2531 366.043 24.3934 364.319 25.2486C362.595 26.1038 360.929 26.5314 359.32 26.5314C356.906 26.5314 354.895 25.7617 353.286 24.2223C351.735 22.626 350.959 20.6591 350.959 18.3215C350.959 16.6682 351.533 15.1288 352.683 13.7035C353.832 12.2782 355.24 11.138 356.906 10.2828C358.63 9.42759 360.296 9 361.905 9Z" fill="#064E3B"/>
   <path d="M419.414 67.9225L422.948 60.3968L427.688 61.7651V84L420.793 82.4607H383.902V77.073L410.363 50.9042H392.866L389.591 57.6602L384.85 56.2064V34.8267L391.746 36.366H428.636V41.7537L402.175 67.9225H419.414Z" fill="#064E3B"/>
   <path d="M487.466 82.4607H467.814V75.0205L458.074 82.6317C456.925 83.0878 455.488 83.3158 453.764 83.3158C448.248 83.3158 444.254 81.9761 441.784 79.2965C439.37 76.6169 438.163 73.3957 438.163 69.6328C438.163 67.4094 438.853 65.2429 440.232 63.1334C441.611 60.9669 443.594 58.9715 446.179 57.1471H467.814V55.6933C467.814 52.5576 466.952 50.2486 465.228 48.7663C463.504 47.2839 461.206 46.5428 458.333 46.5428C454.31 46.5428 449.053 48.1106 442.559 51.2463L439.974 46.3717L451.954 36.7936C454.885 35.9384 458.304 35.5108 462.211 35.5108C468.647 35.5108 473.618 36.9647 477.123 39.8723C480.685 42.7799 482.467 46.9989 482.467 52.5291V73.9088L490.224 76.9019L487.466 82.4607ZM458.16 71.8563C461.091 71.8563 464.309 70.6591 467.814 68.2645V62.7913H453.937C453.477 63.4755 453.132 64.1311 452.902 64.7583C452.73 65.3284 452.644 65.984 452.644 66.7252C452.644 68.1505 453.132 69.3478 454.109 70.317C455.144 71.2862 456.494 71.7708 458.16 71.7708V71.8563Z" fill="#064E3B"/>
   <path d="M16.1201 67.3535C27.4382 73.0831 35.2727 84.6557 35.6143 98.084L35.625 99H49.041C49.041 96.4715 49.1631 93.9714 49.4004 91.5049L50 91.9316L48 109H0.0410156L0 97.8115L16.1201 67.3535ZM107.384 73.3086L127 84.6484V95.9893L81.5 109L74.623 82.4209L63.165 54.4219C70.0878 44.6079 79.2336 36.4619 89.875 30.7119L107.384 73.3086ZM82.6279 13.0811C72.3393 19.3307 63.1847 27.4846 55.9512 36.7939L52.5801 28.5537L35.1309 62.6328C32.1412 58.5601 28.5075 54.7782 24.458 51.6006L51.7705 0H77.252L82.6279 13.0811Z" fill="#064E3B"/>
   <path d="M127 31.3605C83.9445 31.3605 49.0408 66.1211 49.0408 109H35.6253L35.6139 108.084C35.1263 88.9125 19.3681 73.5199 0 73.5199V52.1594C16.5592 52.1594 33 66 40.0805 80.8508C47 43.5 86.4001 10 127 10V31.3605Z" fill="#A7E203"/>
   </svg>
   